<svg width="84" height="84" viewBox="0 0 84 84" fill="none" xmlns="http://www.w3.org/2000/svg">
<path d="M83.9954 28.3291C83.8793 22.2928 81.4705 16.6008 77.2133 12.3019C72.9509 7.9981 67.3261 5.58459 61.3747 5.50584C53.5411 5.4056 46.2948 9.32093 41.9995 15.8557C40.0482 12.8922 37.4503 10.4144 34.3939 8.61908C30.6066 6.39423 26.2749 5.3257 21.8662 5.52815C19.7504 5.6252 17.6591 6.02209 15.6548 6.70694C13.6642 7.38681 13.1251 13.4098 13.1251 13.4098C13.1251 13.4098 5.81569 13.315 5.41767 13.7931C2.11152 17.759 0.212641 22.7086 0.0179065 27.8681C-0.10514 31.088 0.406405 34.2273 1.53876 37.1987C4.29877 44.4421 13.1161 52.501 30.683 68.5566C33.8166 71.4206 37.3682 74.6668 41.1663 78.166C41.3933 78.3756 41.691 78.4918 42 78.4915C42.3073 78.4918 42.6035 78.3768 42.8302 78.1693C45.6981 75.5493 48.5688 72.9324 51.4424 70.3186C53.3793 68.5556 55.2095 66.8901 56.9374 65.3126C58.7066 63.6974 60.1835 59.1147 60.1835 59.1147C60.1835 59.1147 64.6765 58.1907 65.9283 57.0134C75.2134 48.2809 80.105 42.8898 82.2001 37.8544C83.455 34.8386 84.0591 31.634 83.9954 28.3291Z" fill="#8049CE"/>
<path d="M56.9363 65.312C60.3096 62.2326 63.2959 59.4875 65.9274 57.0128L15.6295 6.71484C12.2884 7.86032 9.22125 9.79281 6.67157 12.402C6.23547 12.8491 5.81728 13.3133 5.41797 13.7935L56.9363 65.312Z" fill="#F195D6"/>
<path d="M26.6381 26.9838C26.6619 26.7442 26.6154 26.5029 26.5042 26.2893C26.426 26.0621 26.2833 25.8626 26.0935 25.7151C25.1848 24.5622 22.6983 21.8258 19.5655 21.7937C15.5671 21.7477 12.4119 23.9199 12.383 26.7275C12.365 28.4805 13.5851 30.0574 15.584 30.9779C14.8745 33.0612 15.1773 35.0316 16.4606 36.2261C17.2161 36.9293 18.1998 37.2666 19.2772 37.2666C21.1308 37.2664 23.2617 36.2683 24.9845 34.417C27.1189 32.1237 26.8482 28.4371 26.6381 26.9838Z" fill="#FBECAC"/>
<path d="M39.2579 24.8601C39.0766 23.1164 37.6852 21.6884 35.5945 21.0012C36.0628 18.8508 35.5379 16.9275 34.1273 15.8865C31.8684 14.2196 28.2383 15.4347 25.8642 18.6524C24.004 21.1736 24.6924 24.8061 25.0662 26.2259C25.0697 26.466 25.1431 26.6999 25.2773 26.899C25.3809 27.1171 25.5461 27.3 25.7524 27.4254C26.7237 28.4042 29.2315 30.6075 32.111 30.6075C32.2997 30.6075 32.4906 30.598 32.6824 30.5781C36.6601 30.1644 39.5483 27.6527 39.2579 24.8601Z" fill="#FBECAC"/>
<path d="M28.3946 22.3811C27.2576 21.7384 25.9384 21.5772 24.6802 21.9266C23.422 22.2762 22.3751 23.0949 21.7326 24.2319C21.09 25.3688 20.9287 26.6879 21.2782 27.9462C21.6278 29.2044 22.4465 30.2513 23.5834 30.8939C24.3144 31.3082 25.1403 31.5259 25.9805 31.5257C27.6873 31.5257 29.3473 30.6319 30.2453 29.043C31.5718 26.6961 30.7415 23.7075 28.3946 22.3811Z" fill="#F9CD45"/>
<path d="M83.995 28.329C83.8789 22.2927 81.4701 16.6007 77.2129 12.3018C72.9506 7.99794 67.3257 5.58443 61.3744 5.50568C60.6188 5.49625 59.8633 5.5244 59.1106 5.59001C64.4367 6.05644 69.4149 8.40367 73.2754 12.3018C77.5328 16.6007 79.9414 22.2925 80.0576 28.329C80.1212 31.6337 79.5171 34.8385 78.2624 37.8544C76.325 42.511 71.9959 47.4717 64.0123 55.0978C63.3628 55.7183 61.4205 60.4956 61.4205 60.4956C61.4205 60.4956 56.5468 62.0537 55.0527 63.4284C54.3695 64.0577 53.685 64.6858 52.9995 65.3126C51.1691 66.9827 49.3375 68.6513 47.5046 70.3186C45.0128 72.5853 42.523 74.8541 40.0352 77.1251C40.4097 77.4698 40.7862 77.8161 41.1659 78.1661C41.3929 78.3756 41.6907 78.4918 41.9996 78.4916C42.3069 78.4918 42.6031 78.3768 42.8298 78.1693C45.6977 75.5493 48.5684 72.9324 51.442 70.3186C53.379 68.5556 55.2091 66.8901 56.937 65.3126C58.7062 63.6976 64.6761 58.1907 65.9279 57.0134C75.213 48.2809 80.1046 42.8898 82.1997 37.8544C83.4546 34.8385 84.0587 31.6338 83.995 28.329Z" fill="#6D3BBC"/>
<path d="M55.0527 63.4288L56.937 65.313L57.2044 65.0686C59.1399 63.2973 64.2035 58.626 65.7211 57.2077C65.7893 57.1435 65.8602 57.0774 65.9279 57.0136L64.012 55.0977C63.3407 55.7389 62.6668 56.3776 61.9904 57.0136C61.0614 57.8877 57.5335 61.1463 55.0527 63.4288Z" fill="#E480BE"/>
</svg>
