<svg width="95" height="95" viewBox="0 0 95 95" fill="none" xmlns="http://www.w3.org/2000/svg">
<path d="M81.6406 65.1698V29.7556C81.6405 28.9067 81.3979 28.0756 80.9412 27.36C80.4846 26.6444 79.8329 26.0742 79.063 25.7166L49.3755 11.9298C48.7879 11.657 48.1479 11.5156 47.5 11.5156C46.8521 11.5156 46.2121 11.657 45.6245 11.9298L15.937 25.7166C15.1671 26.0742 14.5155 26.6444 14.0588 27.36C13.6021 28.0756 13.3595 28.9067 13.3594 29.7556V65.1698C13.3595 66.0187 13.6021 66.8499 14.0588 67.5655C14.5155 68.2811 15.1671 68.8512 15.937 69.2088L45.6245 82.9957C46.2121 83.2685 46.8521 83.4098 47.5 83.4098C48.1479 83.4098 48.7879 83.2685 49.3755 82.9957L79.063 69.2088C79.8329 68.8512 80.4846 68.2811 80.9412 67.5655C81.3979 66.8499 81.6405 66.0187 81.6406 65.1698Z" fill="#8049CE"/>
<path d="M81.6406 36.1133V65.1699C81.6411 66.0184 81.3989 66.8494 80.9426 67.5648C80.4863 68.2802 79.8349 68.8501 79.0652 69.2074L49.3777 82.9973C48.7885 83.2668 48.148 83.406 47.5 83.4055V50.727C47.9082 50.727 48.3127 50.6431 48.6875 50.482L81.6406 36.1133Z" fill="#6D3BBC"/>
<path d="M34.1406 45.1762V77.6617L28.2031 74.9082V42.5859L34.1406 45.1762Z" fill="#F154AE"/>
<path d="M66.7969 42.5859V74.9082L60.8594 77.6617V45.1762L66.7969 42.5859Z" fill="#FC90CE"/>
<path d="M83.8672 33.1999V28.861C83.8672 28.2832 83.6986 27.7179 83.382 27.2345C83.0655 26.7511 82.6148 26.3705 82.0852 26.1394L48.6868 11.5792C48.3125 11.4162 47.9086 11.332 47.5004 11.332C47.0921 11.332 46.6883 11.4162 46.314 11.5792L12.9155 26.1394C12.3857 26.3703 11.9348 26.7508 11.6182 27.2343C11.3015 27.7177 11.1328 28.2831 11.1328 28.861V33.1999C11.1328 33.7778 11.3015 34.3432 11.6182 34.8266C11.9348 35.3101 12.3857 35.6906 12.9155 35.9215L46.314 50.4817C46.6883 50.6447 47.0921 50.7288 47.5004 50.7288C47.9086 50.7288 48.3125 50.6447 48.6868 50.4817L82.0852 35.9215C82.6148 35.6904 83.0655 35.3098 83.382 34.8264C83.6986 34.343 83.8672 33.7777 83.8672 33.1999Z" fill="#A867F4"/>
<path d="M83.8672 28.8547V33.1965C83.8672 33.7745 83.6987 34.34 83.3823 34.8238C83.066 35.3075 82.6155 35.6886 82.0859 35.9203L48.6875 50.482C48.3127 50.6431 47.9082 50.727 47.5 50.727V43.0379C47.9092 43.0386 48.3139 42.9526 48.6875 42.7855L83.5777 27.5781C83.7677 27.9767 83.8664 28.4131 83.8672 28.8547Z" fill="#965CEA"/>
<path d="M32.6562 36.8363V44.5328L26.7188 41.9426V34.2461L32.6562 36.8363Z" fill="#F154AE"/>
<path d="M68.2812 34.2461V41.9426L62.3438 44.5328V36.8363L68.2812 34.2461Z" fill="#FC90CE"/>
<path d="M50.5293 28.9453C50.5293 28.9453 49.7871 35.625 53.4981 37.1094C56.7474 38.4089 58.2896 40.8463 58.6229 44.4221C58.6324 44.5656 58.6832 44.7031 58.7694 44.8182C58.8555 44.9332 58.9732 45.0207 59.1082 45.0702C59.2431 45.1196 59.3895 45.1288 59.5296 45.0966C59.6696 45.0645 59.7974 44.9923 59.8972 44.889C61.0183 43.8063 61.8456 42.4562 62.3012 40.9658C62.329 40.8574 62.3804 40.7566 62.4518 40.6705C62.5232 40.5844 62.6128 40.5151 62.7141 40.4677C62.8154 40.4204 62.9259 40.396 63.0378 40.3964C63.1497 40.3968 63.26 40.4219 63.361 40.47C63.9882 40.7572 64.5878 41.1009 65.1519 41.4972C65.2578 41.5728 65.3817 41.6191 65.5111 41.6316C65.6406 41.644 65.771 41.6221 65.8893 41.5681C66.0077 41.514 66.1096 41.4298 66.185 41.3238C66.2604 41.2178 66.3065 41.0938 66.3186 40.9643C66.4597 39.5341 66.4596 37.2541 65.3731 35.625C63.8887 33.3984 58.6934 33.3984 58.6934 31.1719L50.5293 28.9453Z" fill="#6D3BBC"/>
<path d="M83.5773 27.5802L48.6871 42.7876C48.313 42.9528 47.9086 43.0381 47.4996 43.0381C47.0907 43.0381 46.6862 42.9528 46.3121 42.7876L11.4219 27.5802C11.7301 26.9366 12.2596 26.4255 12.9137 26.1404L46.3121 11.5786C46.6862 11.4134 47.0907 11.3281 47.4996 11.3281C47.9086 11.3281 48.313 11.4134 48.6871 11.5786L82.0855 26.1404C82.7396 26.4255 83.2692 26.9366 83.5773 27.5802Z" fill="#BA8BFC"/>
<path d="M49.2518 28.3594C49.2518 28.3594 49.994 35.0391 46.283 36.5234C43.0337 37.823 41.4915 40.2604 41.1582 43.8362C41.1485 43.9794 41.0975 44.1166 41.0114 44.2314C40.9253 44.3462 40.8078 44.4336 40.6731 44.483C40.5384 44.5325 40.3923 44.5419 40.2523 44.5101C40.1124 44.4783 39.9847 44.4066 39.8846 44.3038C38.7635 43.2211 37.9363 41.8711 37.4807 40.3806C37.4529 40.2722 37.4015 40.1714 37.3301 40.0853C37.2587 39.9992 37.1691 39.9299 37.0678 39.8826C36.9665 39.8352 36.8559 39.8108 36.7441 39.8112C36.6322 39.8116 36.5218 39.8367 36.4209 39.8848C35.7937 40.172 35.194 40.5157 34.63 40.912C34.5241 40.9876 34.4002 41.0339 34.2708 41.0464C34.1413 41.0588 34.0108 41.0369 33.8925 40.9829C33.7742 40.9288 33.6722 40.8446 33.5969 40.7386C33.5215 40.6326 33.4754 40.5086 33.4632 40.3791C33.3222 38.9489 33.3222 36.6689 34.4088 35.0398C35.8932 32.8132 41.0885 32.8132 41.0885 30.5867L49.2518 28.3594Z" fill="#6D3BBC"/>
<path d="M68.2812 34.2449L62.3437 36.8352L27.7578 19.6684L33.3613 17.2266L68.2812 34.2449Z" fill="#FC8ED0"/>
<path d="M68.9492 20.409L32.6563 36.8336L26.7188 34.2434L63.791 18.1602L68.9492 20.409Z" fill="#FC8ED0"/>
<path d="M66.3219 40.9648C66.3095 41.0949 66.263 41.2194 66.1872 41.3258C66.1113 41.4322 66.0088 41.5167 65.89 41.5709C65.7711 41.625 65.64 41.6469 65.51 41.6344C65.3799 41.6218 65.2555 41.5752 65.1492 41.4992C64.5844 41.1057 63.9858 40.7629 63.3605 40.475C63.1786 40.3888 62.97 40.3783 62.7803 40.4458C62.5906 40.5132 62.4355 40.6532 62.3489 40.835L62.3438 40.8461V36.8383L65.3125 35.5469C65.334 35.5729 65.3541 35.6003 65.3719 35.6285C66.4629 37.2613 66.4629 39.5398 66.3219 40.9648Z" fill="#FC8ED0"/>
<path d="M47.5003 28.9453C47.5003 28.9453 48.2425 35.625 44.5315 37.1094C41.2822 38.4089 39.74 40.8463 39.4067 44.4221C39.3971 44.5654 39.3462 44.7028 39.2601 44.8177C39.174 44.9326 39.0564 45.02 38.9216 45.0694C38.7868 45.1188 38.6406 45.1281 38.5006 45.0961C38.3607 45.064 38.233 44.9921 38.1331 44.889C37.012 43.8063 36.1848 42.4562 35.7292 40.9658C35.7014 40.8574 35.6499 40.7566 35.5786 40.6705C35.5072 40.5844 35.4176 40.5151 35.3163 40.4677C35.215 40.4204 35.1044 40.396 34.9926 40.3964C34.8807 40.3968 34.7703 40.4219 34.6694 40.47C34.0422 40.7572 33.4425 41.1009 32.8785 41.4972C32.7726 41.5728 32.6487 41.6191 32.5192 41.6316C32.3898 41.644 32.2593 41.6221 32.141 41.5681C32.0227 41.514 31.9207 41.4298 31.8454 41.3238C31.77 41.2178 31.7239 41.0938 31.7117 40.9643C31.57 39.5341 31.57 37.2548 32.6565 35.625C34.1409 33.3984 39.3362 33.3984 39.3362 31.1719L47.5003 28.9453ZM48.9847 28.9453C48.9847 28.9453 48.2425 35.625 51.9534 37.1094C55.2027 38.4089 56.745 40.8463 57.0782 44.4221C57.0878 44.5654 57.1387 44.7028 57.2248 44.8177C57.3109 44.9326 57.4285 45.02 57.5633 45.0694C57.6981 45.1188 57.8444 45.1281 57.9843 45.0961C58.1243 45.064 58.2519 44.9921 58.3518 44.889C59.4729 43.8063 60.3002 42.4562 60.7558 40.9658C60.7836 40.8574 60.835 40.7566 60.9064 40.6705C60.9778 40.5844 61.0674 40.5151 61.1687 40.4677C61.27 40.4204 61.3805 40.396 61.4924 40.3964C61.6042 40.3968 61.7146 40.4219 61.8156 40.47C62.4427 40.7572 63.0424 41.1009 63.6065 41.4972C63.7123 41.5728 63.8362 41.6191 63.9657 41.6316C64.0952 41.644 64.2256 41.6221 64.3439 41.5681C64.4622 41.514 64.5642 41.4298 64.6396 41.3238C64.7149 41.2178 64.761 41.0938 64.7732 40.9643C64.9142 39.5341 64.9142 37.2541 63.8277 35.625C62.3433 33.3984 57.148 33.3984 57.148 31.1719L48.9847 28.9453Z" fill="#FC8ED0"/>
<path d="M64.7785 38.5492C62.9167 38.3365 61.0962 37.8513 59.3754 37.1094C57.3863 36.1148 54.1801 33.3984 51.2113 33.3984C50.5827 33.4682 49.96 33.5847 49.3484 33.7473C48.9579 32.1785 48.835 30.555 48.9848 28.9453L57.1488 31.1719C57.1488 33.3984 62.3441 33.3984 63.8285 35.625C64.3726 36.5106 64.6982 37.5129 64.7785 38.5492ZM47.1367 33.7473C46.5253 33.5848 45.9026 33.4682 45.2738 33.3984C42.3051 33.3984 39.0988 36.1148 37.1098 37.1094C35.4487 37.667 33.6489 37.6539 31.9961 37.0723C32.1438 36.5602 32.3664 36.0725 32.6566 35.625C34.141 33.3984 39.3363 33.3984 39.3363 31.1719L47.5004 28.9453C47.6502 30.555 47.5272 32.1785 47.1367 33.7473Z" fill="#F154AE"/>
<path d="M40.921 17.6189C38.5757 15.2735 34.4447 12.9416 31.5665 14.7407C28.6883 16.5397 28.3283 17.8014 29.7674 24.2778C30.3619 26.9526 28.033 30.5233 29.4075 33.2723C30.2424 34.943 31.7906 35.3482 33.7248 35.0031C35.356 34.6438 36.9299 34.0614 38.4021 33.2723C41.2803 31.8332 44.1703 30.3941 46.3175 30.3941V23.016L40.921 17.6189Z" fill="#FC8ED0"/>
<path d="M29.4064 33.2752C30.2414 34.9444 31.7881 35.3511 33.7237 35.006C35.3549 34.6467 36.9288 34.0643 38.401 33.2752C41.2792 31.8361 44.1685 30.397 46.3164 30.397V28.2417L44.5173 28.598C44.5173 28.598 38.0774 24.9924 34.4436 25.7198C32.6446 26.0797 31.2055 27.1945 30.8455 25.0362C30.5321 23.8247 29.9927 22.6833 29.2557 21.6719C29.3886 22.4779 29.5578 23.3448 29.7664 24.2807C30.3601 26.9533 28.0319 30.5262 29.4064 33.2752Z" fill="#F154AE"/>
<path d="M46.32 23.0152V30.3926C45.8427 30.3977 45.3674 30.455 44.9025 30.5633C44.1216 29.5775 43.617 28.4018 43.4404 27.1566C43.2333 24.9491 43.3736 22.7227 43.856 20.5586C45.2142 21.9094 46.32 23.0152 46.32 23.0152Z" fill="#F154AE"/>
<path d="M46.3183 29.3387V30.3964C44.1704 30.3964 41.2811 31.8355 38.4029 33.2746C37.8522 33.5477 37.3126 33.8037 36.7842 34.0301H36.7767C35.8631 34.1882 31.8872 34.6996 31.5673 31.8355C31.2504 28.9751 34.0856 27.5182 36.6046 27.8781C39.0649 28.2307 41.1846 29.6126 46.3183 29.3387Z" fill="#FC90CE"/>
<path d="M55.8691 17.6189C58.2144 15.2735 62.3454 12.9416 65.2236 14.7407C68.1018 16.5397 68.4618 17.8014 67.0227 24.2778C66.4282 26.9526 68.7572 30.5233 67.3827 33.2723C66.547 34.943 64.9995 35.3482 63.0654 35.0031C61.4342 34.6438 59.8603 34.0614 58.3881 33.2723C55.5099 31.8332 52.6198 30.3941 50.4727 30.3941V23.016L55.8691 17.6189Z" fill="#FC8ED0"/>
<path d="M53.3484 27.5121C53.1265 28.6361 52.6235 29.6855 51.8863 30.5625C51.4214 30.4542 50.9461 30.3969 50.4688 30.3918V23.0145C50.4688 23.0145 51.5895 21.9012 52.9477 20.543C53.4761 22.8267 53.6119 25.1831 53.3484 27.5121Z" fill="#F154AE"/>
<path d="M67.3807 33.2752C66.5457 34.9444 64.999 35.3511 63.0634 35.006C61.4322 34.6467 59.8583 34.0643 58.3861 33.2752C55.5079 31.8361 52.6186 30.397 50.4707 30.397V28.2417L52.2698 28.598C52.2698 28.598 58.7097 24.9924 62.3442 25.7198C64.1433 26.0797 65.5824 27.1945 65.9423 25.0362C66.2557 23.8245 66.7954 22.683 67.5329 21.6719C67.3869 22.546 67.2167 23.416 67.0222 24.2807C66.4277 26.9533 68.7552 30.5262 67.3807 33.2752Z" fill="#F154AE"/>
<path d="M50.4727 29.3387V30.3964C52.6205 30.3964 55.5099 31.8355 58.3881 33.2746C58.9388 33.5477 59.4784 33.8037 60.0075 34.0301H60.015C60.9286 34.1882 64.9045 34.6996 65.2244 31.8355C65.5413 28.9751 62.7061 27.5182 60.1872 27.8781C57.7253 28.2307 55.6064 29.6126 50.4727 29.3387Z" fill="#FC90CE"/>
<path d="M50.992 30.035C50.201 30.5869 49.2598 30.8828 48.2953 30.8828C47.3308 30.8828 46.3895 30.5869 45.5985 30.035C43.2198 28.1128 43.4358 22.9449 45.5985 20.7822C46.3618 20.1649 47.3137 19.8281 48.2953 19.8281C49.2769 19.8281 50.2288 20.1649 50.992 20.7822C53.1547 22.9449 53.3707 28.1128 50.992 30.035Z" fill="#FC8ED0"/>
</svg>
