<svg width="65" height="98" viewBox="0 0 65 98" fill="none" xmlns="http://www.w3.org/2000/svg">
<path fill-rule="evenodd" clip-rule="evenodd" d="M49.5371 39.5123C49.7662 39.5695 49.9953 39.5695 50.2243 39.5695C52.5724 39.5695 54.4622 37.6797 54.4622 35.3316C54.4622 32.9836 52.5724 31.0938 50.2243 31.0938H49.8235L49.5371 39.5123Z" fill="#F2AC8B"/>
<path fill-rule="evenodd" clip-rule="evenodd" d="M49.7088 38.7694C49.8807 38.7694 50.0525 38.8266 50.2815 38.8266C52.1714 38.8266 53.7177 37.2804 53.7177 35.3332C53.7177 33.3861 52.1714 31.8398 50.2815 31.8398C50.167 31.8398 50.0525 31.8398 49.9379 31.8971C49.7088 31.8971 49.5943 32.0689 49.5943 32.2407L49.3652 38.3685C49.3652 38.5403 49.4798 38.7121 49.7088 38.7694Z" fill="#F57E66"/>
<path fill-rule="evenodd" clip-rule="evenodd" d="M49.7676 38.3699C49.9394 38.4272 50.1112 38.4272 50.283 38.4272C51.9438 38.4272 53.3182 37.0528 53.3182 35.3347C53.3182 33.6166 51.9438 32.2422 50.283 32.2422H49.9394L49.7676 38.3699Z" fill="#F39B7D"/>
<path fill-rule="evenodd" clip-rule="evenodd" d="M15.4628 39.5123C15.2338 39.5695 15.0047 39.5695 14.7756 39.5695C12.4276 39.5695 10.4805 37.6797 10.4805 35.3316C10.4805 32.9836 12.4276 31.0938 14.7756 31.0938H15.1765L15.4628 39.5123Z" fill="#F2AC8B"/>
<path fill-rule="evenodd" clip-rule="evenodd" d="M15.2907 38.7694C15.1189 38.7694 14.8898 38.8266 14.718 38.8266C12.8281 38.8266 11.2246 37.2804 11.2246 35.3332C11.2246 33.3861 12.8281 31.8398 14.718 31.8398C14.8325 31.8398 14.9471 31.8398 15.0616 31.8971C15.2334 31.8971 15.4052 32.0689 15.4052 32.2407L15.6343 38.3685C15.6343 38.5403 15.4625 38.7121 15.2907 38.7694Z" fill="#F57E66"/>
<path fill-rule="evenodd" clip-rule="evenodd" d="M15.2329 38.3699C15.0611 38.4272 14.8893 38.4272 14.7175 38.4272C12.9994 38.4272 11.625 37.0528 11.625 35.3347C11.625 33.6166 12.9994 32.2422 14.7175 32.2422H15.0039L15.2329 38.3699Z" fill="#F39B7D"/>
<path fill-rule="evenodd" clip-rule="evenodd" d="M7.5022 67.3477C2.97797 70.2684 0 75.4225 0 81.1494V97.7573H65V81.1494C65 75.4225 61.9648 70.2684 57.4978 67.3477H7.5022Z" fill="#8B35CC"/>
<path fill-rule="evenodd" clip-rule="evenodd" d="M7.50091 67.3477C7.1573 67.5195 6.87096 67.7485 6.52734 67.9776C8.93263 71.9292 15.9767 73.1891 19.7564 74.6781L32.0692 79.6032C32.3555 79.7177 32.6419 79.7177 32.9282 79.6032L45.1837 74.6781C49.0207 73.1891 56.0075 71.9292 58.4128 67.9776C58.1265 67.7485 57.7829 67.5195 57.4965 67.3477H7.50091Z" fill="#604ACC"/>
<path fill-rule="evenodd" clip-rule="evenodd" d="M7.50091 67.3477C7.1573 67.5195 6.87096 67.7485 6.52734 67.9776C8.93263 71.9292 15.9767 73.1891 19.7564 74.6781L32.0692 79.6032C32.3555 79.7177 32.6419 79.7177 32.9282 79.6032L45.1837 74.6781C48.3335 73.4181 53.6595 72.3873 56.752 69.8675C55.8357 68.8939 54.8621 68.0349 53.7168 67.3477H7.50091Z" fill="#6552D7"/>
<path fill-rule="evenodd" clip-rule="evenodd" d="M55.7807 97.7645H57.7279V92.3239C57.7279 91.8085 57.327 91.3504 56.7543 91.3504C56.2389 91.3504 55.7807 91.8085 55.7807 92.3239V97.7645ZM7.21684 97.7645H9.16398V92.3239C9.16398 91.8085 8.7631 91.3504 8.19041 91.3504C7.67499 91.3504 7.21684 91.8085 7.21684 92.3239V97.7645ZM27.3754 59.1653C8.53402 54.5266 6.52962 61.1125 6.87323 65.4076C7.33138 70.5045 15.6353 71.7645 20.2168 73.5971L32.4723 78.5222L44.7851 73.5971C49.3094 71.7645 57.6133 70.5045 58.0715 65.4076C58.4724 61.1125 56.4679 54.5266 37.6265 59.1653H27.3754Z" fill="#9861F0"/>
<path fill-rule="evenodd" clip-rule="evenodd" d="M27.375 49.1914H37.6261V61.2751C37.6261 64.1385 35.3354 66.4293 32.4719 66.4293C29.6657 66.4293 27.375 64.1385 27.375 61.2751V49.1914Z" fill="#F2B291"/>
<path fill-rule="evenodd" clip-rule="evenodd" d="M27.375 49.1914H37.6261V56.2355C35.9653 56.6936 34.2472 56.9227 32.4719 56.9227C30.6966 56.9227 28.9785 56.6936 27.375 56.2355V49.1914Z" fill="#F3A083"/>
<path fill-rule="evenodd" clip-rule="evenodd" d="M14.4902 16.0377L50.455 15.9805V37.7999C50.455 47.6501 42.3801 55.7822 32.4726 55.7822C22.6224 55.7822 14.4902 47.6501 14.4902 37.7999V16.0377Z" fill="#F2B291"/>
<path fill-rule="evenodd" clip-rule="evenodd" d="M14.4902 16.0377L48.6797 15.9805V35.7954C48.6797 45.7029 40.5475 53.7778 30.64 53.7778C25.944 53.7778 21.6488 51.9452 18.3845 48.91C15.9792 45.8747 14.4902 41.9805 14.4902 37.7999V16.0377Z" fill="#F2C5A4"/>
<path fill-rule="evenodd" clip-rule="evenodd" d="M14.4908 31.6107C14.4908 31.6107 5.49958 15.2318 17.6978 7.95868C17.6978 7.95868 23.3102 -5.614 44.156 2.68996C44.156 2.68996 40.8344 4.98071 40.7771 6.29789C40.7199 7.5578 61.6802 7.95868 50.4555 31.5534C50.3983 31.5534 51.2 23.9367 45.5304 23.0204C43.4115 22.6767 42.7243 23.3067 40.8344 23.593C38.5436 23.9367 34.5348 23.9367 29.7243 21.0732C19.7022 15.1173 15.3498 18.6107 14.4908 31.6107Z" fill="#0D2436"/>
<path fill-rule="evenodd" clip-rule="evenodd" d="M14.4884 31.6078C14.4884 31.6078 5.6117 15.458 17.4663 8.07031H17.8099C17.8099 8.07031 22.1624 11.5637 23.6513 18.4932C17.8672 17.2333 15.1183 21.5857 14.4884 31.6078Z" fill="#0B1D2C"/>
<path fill-rule="evenodd" clip-rule="evenodd" d="M47.8191 97.7558V93.6898C47.8191 91.399 45.9865 89.5664 43.753 89.5664H21.1891C18.9556 89.5664 17.123 91.399 17.123 93.6898V97.7558H47.8191Z" fill="#FC8ED0"/>
<path d="M45.9297 68.8329C45.9297 68.3175 46.3878 67.8594 46.9033 67.8594C47.4759 67.8594 47.8768 68.3175 47.8768 68.8329V80.8021C47.8768 81.3175 47.4759 81.7757 46.9033 81.7757C46.3878 81.7757 45.9297 81.3175 45.9297 80.8021V68.8329Z" fill="#FBFBFB"/>
<path fill-rule="evenodd" clip-rule="evenodd" d="M46.2144 80.1171C46.6153 79.7162 47.2452 79.7162 47.5888 80.1171C47.9897 80.4607 47.9897 81.0906 47.5888 81.4915L45.1263 83.9541C44.7254 84.355 44.0954 84.355 43.7518 83.9541C43.351 83.6105 43.351 82.9805 43.7518 82.5796L46.2144 80.1171Z" fill="#472AC1"/>
<path fill-rule="evenodd" clip-rule="evenodd" d="M46.2167 81.4915C45.8731 81.0906 45.8731 80.4607 46.2167 80.1171C46.6176 79.7162 47.2475 79.7162 47.5911 80.1171L50.111 82.5796C50.5118 82.9805 50.5118 83.6105 50.111 83.9541C49.7101 84.355 49.1374 84.355 48.7365 83.9541L46.2167 81.4915Z" fill="#472AC1"/>
<path fill-rule="evenodd" clip-rule="evenodd" d="M45.9297 80.8095C45.9297 80.2368 46.3878 79.8359 46.9033 79.8359C47.4759 79.8359 47.8768 80.2368 47.8768 80.8095V84.3029C47.8768 84.8756 47.4759 85.2765 46.9033 85.2765C46.3878 85.2765 45.9297 84.8756 45.9297 84.3029V80.8095Z" fill="#472AC1"/>
<path d="M17.0664 68.8329C17.0664 68.3175 17.5246 67.8594 18.04 67.8594C18.6127 67.8594 19.0135 68.3175 19.0135 68.8329V80.8021C19.0135 81.3175 18.6127 81.7757 18.04 81.7757C17.5246 81.7757 17.0664 81.3175 17.0664 80.8021V68.8329Z" fill="#FBFBFB"/>
<path fill-rule="evenodd" clip-rule="evenodd" d="M17.3531 80.1171C17.7539 79.7162 18.3839 79.7162 18.7275 80.1171C19.1284 80.4607 19.1284 81.0906 18.7275 81.4915L16.265 83.9541C15.8641 84.355 15.2341 84.355 14.8905 83.9541C14.4896 83.6105 14.4896 82.9805 14.8905 82.5796L17.3531 80.1171Z" fill="#472AC1"/>
<path fill-rule="evenodd" clip-rule="evenodd" d="M17.3515 81.4915C17.0078 81.0906 17.0078 80.4607 17.3515 80.1171C17.7523 79.7162 18.3823 79.7162 18.7259 80.1171L21.2457 82.5796C21.6466 82.9805 21.6466 83.6105 21.2457 83.9541C20.8449 84.355 20.2722 84.355 19.8713 83.9541L17.3515 81.4915Z" fill="#472AC1"/>
<path fill-rule="evenodd" clip-rule="evenodd" d="M17.1237 80.8095C17.1237 80.2368 17.5246 79.8359 18.04 79.8359C18.6127 79.8359 19.0135 80.2368 19.0135 80.8095V84.3029C19.0135 84.8756 18.6127 85.2765 18.04 85.2765C17.5246 85.2765 17.0664 84.8756 17.0664 84.3029L17.1237 80.8095Z" fill="#472AC1"/>
<path d="M46.9025 68.8362C48.4839 68.8362 49.7659 67.5542 49.7659 65.9728C49.7659 64.3914 48.4839 63.1094 46.9025 63.1094C45.3211 63.1094 44.0391 64.3914 44.0391 65.9728C44.0391 67.5542 45.3211 68.8362 46.9025 68.8362Z" fill="#FC8ED0"/>
<path d="M46.9029 62.5898C47.8765 62.5898 48.7355 62.9335 49.3655 63.5634V63.6207C49.9954 64.1934 50.339 65.0524 50.339 65.9687C50.339 66.9423 49.9382 67.8013 49.3655 68.4313C48.7355 69.0612 47.8765 69.4048 46.9029 69.4048C45.9866 69.4048 45.1276 69.0612 44.4976 68.4313L44.4404 68.374C43.8677 67.744 43.4668 66.9423 43.4668 65.9687C43.4668 65.0524 43.8677 64.1934 44.4976 63.5634C45.1276 62.9335 45.9866 62.5898 46.9029 62.5898ZM48.5064 64.3652C48.1056 63.9643 47.5329 63.7352 46.9029 63.7352C46.273 63.7352 45.7575 63.9643 45.2994 64.3652V64.4224C44.8985 64.8233 44.6694 65.3387 44.6694 65.9687C44.6694 66.5987 44.8985 67.1713 45.2994 67.5722C45.7575 67.9731 46.273 68.2594 46.9029 68.2594C47.5329 68.2594 48.1056 67.9731 48.5064 67.5722C48.9073 67.1713 49.1937 66.5987 49.1937 65.9687C49.1937 65.396 48.9646 64.8233 48.5637 64.4224L48.5064 64.3652Z" fill="white"/>
<path d="M18.0392 68.8362C19.6206 68.8362 20.9027 67.5542 20.9027 65.9728C20.9027 64.3914 19.6206 63.1094 18.0392 63.1094C16.4578 63.1094 15.1758 64.3914 15.1758 65.9728C15.1758 67.5542 16.4578 68.8362 18.0392 68.8362Z" fill="#FC8ED0"/>
<path d="M18.039 62.5898C19.0126 62.5898 19.8716 62.9335 20.5016 63.5634C21.1315 64.1934 21.4751 65.0524 21.4751 65.9687C21.4751 66.9423 21.1315 67.8013 20.5016 68.4313H20.4443C19.8143 69.0612 19.0126 69.4048 18.039 69.4048C17.1227 69.4048 16.2637 69.0612 15.6337 68.4313C15.0038 67.8013 14.6602 66.9423 14.6602 65.9687C14.6602 65.0524 15.0038 64.1934 15.6337 63.5634C16.2637 62.9335 17.1227 62.5898 18.039 62.5898ZM19.6425 64.3652C19.2417 63.9643 18.669 63.7352 18.039 63.7352C17.4663 63.7352 16.8936 63.9643 16.4928 64.3652C16.0346 64.8233 15.8055 65.3387 15.8055 65.9687C15.8055 66.5987 16.0346 67.1713 16.4928 67.5722C16.8936 67.9731 17.4663 68.2594 18.039 68.2594C18.669 68.2594 19.2417 68.0304 19.6425 67.6295V67.5722C20.0434 67.1713 20.3298 66.5987 20.3298 65.9687C20.3298 65.3387 20.0434 64.8233 19.6425 64.3652Z" fill="white"/>
<path fill-rule="evenodd" clip-rule="evenodd" d="M37.2248 32.0109C36.9957 31.5528 36.423 31.381 35.9648 31.6673C35.5067 31.8964 35.3349 32.5264 35.564 32.9845C36.0221 33.729 36.5948 34.4162 37.3393 34.8171C38.0265 35.2753 38.771 35.5616 39.63 35.5616C40.4891 35.5616 41.2336 35.2753 41.9781 34.8171C42.6653 34.4162 43.238 33.729 43.6961 32.9845C43.9252 32.5264 43.8107 31.8964 43.3525 31.6673C42.8944 31.381 42.2644 31.5528 42.0353 32.0109C41.749 32.5264 41.3481 32.9845 40.9472 33.2709C40.5463 33.4999 40.0882 33.6145 39.63 33.6145C39.1719 33.6145 38.7137 33.4999 38.3701 33.2709C37.912 32.9845 37.5111 32.5264 37.2248 32.0109ZM22.9648 32.0109C22.6785 31.5528 22.1058 31.381 21.6477 31.6673C21.1895 31.8964 21.0177 32.5264 21.3041 32.9845C21.7622 33.729 22.3349 34.4162 23.0221 34.8171C23.7093 35.2753 24.5111 35.5616 25.3701 35.5616C26.1719 35.5616 26.9737 35.2753 27.6609 34.8171C28.3481 34.4162 28.9781 33.729 29.3789 32.9845C29.6653 32.5264 29.4935 31.8964 29.0353 31.6673C28.5772 31.381 28.0045 31.5528 27.7182 32.0109C27.4318 32.5264 27.0882 32.9845 26.63 33.2709C26.2292 33.4999 25.8283 33.6145 25.3701 33.6145C24.912 33.6145 24.4538 33.4999 24.053 33.2709C23.6521 32.9845 23.2512 32.5264 22.9648 32.0109Z" fill="#0D2436"/>
<path fill-rule="evenodd" clip-rule="evenodd" d="M24.0532 46.0994H27.7184L14.4894 29.1479C11.7405 25.5972 9.50699 27.5444 11.9695 30.6942L24.0532 46.0994Z" fill="#E6E6E6"/>
<path fill-rule="evenodd" clip-rule="evenodd" d="M37.9674 45.125C38.5401 45.125 38.941 45.5831 38.941 46.0986C38.941 46.614 38.5401 47.0149 37.9674 47.0149H22.6194C22.104 47.0149 21.7031 46.614 21.7031 46.0986C21.7031 45.5831 22.104 45.125 22.6194 45.125H37.9674Z" fill="#F39B7D"/>
<path fill-rule="evenodd" clip-rule="evenodd" d="M12.7718 27.543C10.9965 26.5122 10.0802 28.2302 11.97 30.6928L12.7145 31.6091L12.7718 31.6663L13.1727 31.38L14.0317 30.6928L14.4898 30.3492L14.6044 30.2919L15.0625 29.891L14.6617 29.3756L14.4898 29.1465C13.8599 28.3448 13.2872 27.8293 12.7718 27.543Z" fill="#FC8ED0"/>
</svg>
