<svg width="76" height="76" viewBox="0 0 76 76" fill="none" xmlns="http://www.w3.org/2000/svg">
<g clip-path="url(#clip0_1_1370)">
<path d="M61.75 17.8125H16.625C16.3101 17.8125 16.008 17.9376 15.7853 18.1603C15.5626 18.383 15.4375 18.6851 15.4375 19V36.8125C15.4375 38.7848 17.9075 40.2635 22.9888 41.3333C27.3284 42.2468 33.0812 42.75 39.1875 42.75C45.2938 42.75 51.0468 42.2468 55.3862 41.3333C60.4675 40.2635 62.9375 38.7848 62.9375 36.8125V19C62.9375 18.6851 62.8124 18.383 62.5897 18.1603C62.367 17.9376 62.0649 17.8125 61.75 17.8125Z" fill="#965CEA"/>
<path d="M16.625 17.8125C16.3101 17.8125 16.008 17.9376 15.7853 18.1603C15.5626 18.383 15.4375 18.6851 15.4375 19V36.8125C15.4375 38.7848 17.9075 40.2635 22.9888 41.3333C24.3402 41.6179 25.8289 41.8625 27.4223 42.0645V17.8125H16.625Z" fill="#6D3BBC"/>
<path d="M72.9376 15.5479L39.6876 0.110434C39.5309 0.0376878 39.3602 0 39.1875 0C39.0148 0 38.8441 0.0376878 38.6874 0.110434L5.43741 15.5479C5.23208 15.6433 5.05829 15.7953 4.9365 15.9861C4.81471 16.177 4.75 16.3986 4.75 16.625C4.75 16.8514 4.81471 17.073 4.9365 17.2639C5.05829 17.4547 5.23208 17.6067 5.43741 17.7021L38.6874 33.1396C38.8441 33.2123 39.0147 33.25 39.1875 33.25C39.3602 33.25 39.5309 33.2123 39.6876 33.1396L72.9376 17.7021C73.1429 17.6067 73.3167 17.4547 73.4385 17.2639C73.5603 17.073 73.625 16.8514 73.625 16.625C73.625 16.3986 73.5603 16.177 73.4385 15.9861C73.3167 15.7953 73.1429 15.6433 72.9376 15.5479Z" fill="#C5A0FF"/>
<path d="M22.8594 13.954C21.4642 12.4982 20.3174 10.844 19.4078 9.0625L5.43741 15.5488C5.23208 15.6441 5.05829 15.7961 4.9365 15.987C4.81471 16.1778 4.75 16.3995 4.75 16.6258C4.75 16.8522 4.81471 17.0739 4.9365 17.2647C5.05829 17.4555 5.23208 17.6076 5.43741 17.7029L38.6874 33.1404C38.8441 33.2132 39.0147 33.2509 39.1875 33.2509C39.3602 33.2509 39.5309 33.2132 39.6876 33.1404L56.0835 25.5279C49.4266 25.481 42.6093 23.6971 36.3672 21.6727C31.4687 20.0399 26.7187 17.8133 22.8594 13.954Z" fill="#9861F0"/>
<path d="M5.9375 46.3125C5.62256 46.3125 5.32051 46.1874 5.09781 45.9647C4.87511 45.742 4.75 45.4399 4.75 45.125V16.625C4.75 16.3101 4.87511 16.008 5.09781 15.7853C5.32051 15.5626 5.62256 15.4375 5.9375 15.4375H38C38.3149 15.4375 38.617 15.5626 38.8397 15.7853C39.0624 16.008 39.1875 16.3101 39.1875 16.625C39.1875 16.9399 39.0624 17.242 38.8397 17.4647C38.617 17.6874 38.3149 17.8125 38 17.8125H7.125V45.125C7.125 45.4399 6.99989 45.742 6.77719 45.9647C6.55449 46.1874 6.25244 46.3125 5.9375 46.3125Z" fill="#6D3BBC"/>
<path d="M9.4942 45.0068L8.3067 33.1318C8.27739 32.8388 8.14024 32.5671 7.92187 32.3695C7.7035 32.1719 7.41949 32.0625 7.12499 32.0625H4.74999C4.45551 32.0625 4.17153 32.1719 3.95319 32.3695C3.73485 32.5671 3.59773 32.8388 3.56842 33.1318L2.38092 45.0068C2.36437 45.1719 2.3826 45.3387 2.43445 45.4963C2.4863 45.6539 2.5706 45.7989 2.68193 45.9219C2.79327 46.0449 2.92915 46.1432 3.08081 46.2105C3.23248 46.2778 3.39657 46.3125 3.56249 46.3125H8.31249C8.4784 46.3125 8.64247 46.2777 8.79412 46.2104C8.94577 46.1431 9.08164 46.0448 9.19298 45.9218C9.30431 45.7988 9.38863 45.6538 9.44051 45.4962C9.4924 45.3386 9.51068 45.1719 9.4942 45.0068Z" fill="#6D3BBC"/>
<path d="M5.9375 34.4375C7.90501 34.4375 9.5 32.8425 9.5 30.875C9.5 28.9075 7.90501 27.3125 5.9375 27.3125C3.96999 27.3125 2.375 28.9075 2.375 30.875C2.375 32.8425 3.96999 34.4375 5.9375 34.4375Z" fill="#965CEA"/>
<path d="M60.5625 49.875C53.4375 49.875 46.3125 52.25 36.8125 52.25C27.3125 52.25 19 49.875 13.0625 49.875C8.47163 49.875 4.75 53.5966 4.75 58.1875C4.75 62.7784 8.47163 66.5 13.0625 66.5C20.1875 66.5 27.3125 62.9375 36.8125 62.9375C46.3125 62.9375 54.625 65.3125 60.5625 65.3125C64.125 65.3125 68.875 62.7784 68.875 58.1875C68.875 53.5966 65.1534 49.875 60.5625 49.875Z" fill="#FDE09B"/>
<path d="M13.0625 66.5C17.6534 66.5 21.375 62.7784 21.375 58.1875C21.375 53.5966 17.6534 49.875 13.0625 49.875C8.47163 49.875 4.75 53.5966 4.75 58.1875C4.75 62.7784 8.47163 66.5 13.0625 66.5Z" fill="#FCD069"/>
<path d="M13.0625 61.75C15.03 61.75 16.625 60.155 16.625 58.1875C16.625 56.22 15.03 54.625 13.0625 54.625C11.095 54.625 9.5 56.22 9.5 58.1875C9.5 60.155 11.095 61.75 13.0625 61.75Z" fill="#FBC137"/>
<path d="M72.8347 58.1875H26.692C26.3867 58.1875 26.1284 58.4191 26.1018 58.7232C25.6191 64.2682 16.625 66.5 13.0625 66.5C24.9375 66.5 26.125 64.125 39.1875 64.125C47.8013 64.125 53.735 66.4418 60.5625 66.4418C66.5 66.4418 72.8988 63.818 73.4267 58.8412C73.4638 58.4916 73.1862 58.1875 72.8347 58.1875Z" fill="#FEEFCD"/>
<path d="M63.6579 63.3481C56.8303 63.3481 50.8967 61.0312 42.2829 61.0312C32.5544 61.0312 29.4119 62.3485 23.5362 63.0209C20.4792 65.4566 15.4998 66.5016 13.0625 66.5016C24.9375 66.5016 26.125 64.1266 39.1875 64.1266C47.8013 64.1266 53.735 66.4434 60.5625 66.4434C65.5455 66.4434 70.8526 64.5951 72.7424 61.0592C70.2584 62.5704 66.8899 63.3481 63.6579 63.3481Z" fill="#FDE8B4"/>
<path d="M45.1094 64.125H37.9844C37.6694 64.125 37.3674 64.2501 37.1447 64.4728C36.922 64.6955 36.7969 64.9976 36.7969 65.3125V74.8125C36.7969 75.0007 36.8416 75.1862 36.9273 75.3537C37.013 75.5212 37.1374 75.6659 37.29 75.7759C37.4427 75.886 37.6193 75.9581 37.8053 75.9865C37.9913 76.0149 38.1814 75.9986 38.3599 75.9391L41.5469 73.625L44.7338 75.939C44.9123 75.9984 45.1024 76.0147 45.2884 75.9863C45.4745 75.9579 45.6511 75.8858 45.8038 75.7759C45.9564 75.6658 46.0807 75.5211 46.1665 75.3536C46.2522 75.1861 46.2969 75.0007 46.2969 74.8125V65.3125C46.2969 64.9976 46.1718 64.6955 45.9491 64.4728C45.7264 64.2501 45.4243 64.125 45.1094 64.125Z" fill="#F154AE"/>
<path d="M41.5469 67.6875C46.7936 67.6875 51.0469 63.4342 51.0469 58.1875C51.0469 52.9408 46.7936 48.6875 41.5469 48.6875C36.3002 48.6875 32.0469 52.9408 32.0469 58.1875C32.0469 63.4342 36.3002 67.6875 41.5469 67.6875Z" fill="#FF6EE0"/>
<path d="M41.5469 62.9375C44.1702 62.9375 46.2969 60.8109 46.2969 58.1875C46.2969 55.5641 44.1702 53.4375 41.5469 53.4375C38.9235 53.4375 36.7969 55.5641 36.7969 58.1875C36.7969 60.8109 38.9235 62.9375 41.5469 62.9375Z" fill="#EDEAEE"/>
</g>
<defs>
<clipPath id="clip0_1_1370">
<rect width="76" height="76" fill="white"/>
</clipPath>
</defs>
</svg>
