<svg width="76" height="76" viewBox="0 0 76 76" fill="none" xmlns="http://www.w3.org/2000/svg">
<g clip-path="url(#clip0_1_1219)">
<path d="M46.8224 12.8257V4.41118C46.8224 1.9749 44.8473 0 42.4112 0C39.9749 0 38 1.9749 38 4.41118V12.8257H46.8224Z" fill="#FFD9B3"/>
<path d="M46.8224 12.8257V4.41118C46.8224 1.9749 44.8473 0 42.4112 0C39.9749 0 38 1.9749 38 4.41118V12.8257H46.8224Z" fill="#FFBB99"/>
<path d="M61.1485 55.6914L48.5078 68.3319L56.1756 75.9998H75.9993V65.7506L61.1485 55.6914Z" fill="#815BCD"/>
<path d="M61.1485 55.6914L48.5078 68.3319L56.1756 75.9998H75.9993V65.7506L61.1485 55.6914Z" fill="#5E00A5"/>
<path d="M55.7271 52.0184C54.7189 51.3356 53.8579 50.4576 53.1947 49.4363C52.5316 48.4151 52.0799 47.2713 51.8662 46.0725L50.1585 36.4914L48.3402 31.5119C47.3361 28.7621 46.8224 25.8574 46.8224 22.93V12.8261C46.8224 10.3894 44.847 8.41406 42.4103 8.41406C39.997 8.41406 38.0376 10.3519 38 12.7562C38.0003 12.7795 38.0018 12.8027 38.0018 12.8261V51.2321C38.0018 51.2798 38.0004 51.3273 38 51.3749C38.0371 55.5441 39.7096 59.5321 42.6574 62.4807L50.7353 70.5584L63.8042 57.4895L55.7271 52.0184Z" fill="#FFE6CE"/>
<path d="M55.7271 52.0184C54.7189 51.3356 53.8579 50.4576 53.1947 49.4363C52.5316 48.4151 52.0799 47.2713 51.8662 46.0725L50.1585 36.4914L48.3402 31.5119C47.3361 28.7621 46.8224 25.8574 46.8224 22.93V12.8261C46.8224 10.3894 44.847 8.41406 42.4103 8.41406C39.997 8.41406 38.0376 10.3519 38 12.7562C38.0003 12.7795 38.0018 12.8027 38.0018 12.8261V51.2321C38.0018 51.2798 38.0004 51.3273 38 51.3749C38.0371 55.5441 39.7096 59.5321 42.6574 62.4807L50.7353 70.5584L63.8042 57.4895L55.7271 52.0184Z" fill="#FFD9B3"/>
<path d="M29.1777 12.8257V4.41118C29.1777 1.9749 31.1526 0 33.5889 0C36.0252 0 38.0001 1.9749 38.0001 4.41118V12.8257H29.1777Z" fill="#FFD9B3"/>
<path d="M14.8508 55.6914L27.4915 68.3319L19.8237 75.9998H0V65.7506L14.8508 55.6914Z" fill="#FF6EE0"/>
<path d="M20.2725 52.0184C21.2806 51.3356 22.1417 50.4576 22.8048 49.4363C23.468 48.4151 23.9197 47.2713 24.1334 46.0725L25.8411 36.4914L27.6594 31.5119C28.6635 28.7621 29.1772 25.8574 29.1772 22.93V12.8261C29.1772 10.3894 31.1526 8.41406 33.5893 8.41406C36.0025 8.41406 37.962 10.3519 37.9996 12.7562C37.9993 12.7795 37.9978 12.8027 37.9978 12.8261V51.2321C37.9978 51.2798 37.9991 51.3273 37.9996 51.3749C37.9625 55.5441 36.29 59.5321 33.3421 62.4807L25.2642 70.5584L12.1953 57.4895L20.2725 52.0184Z" fill="#FFE6CE"/>
</g>
<defs>
<clipPath id="clip0_1_1219">
<rect width="76" height="76" fill="white"/>
</clipPath>
</defs>
</svg>
