<svg width="76" height="76" viewBox="0 0 76 76" fill="none" xmlns="http://www.w3.org/2000/svg">
<mask id="mask0_1_1299" style="mask-type:luminance" maskUnits="userSpaceOnUse" x="0" y="0" width="76" height="76">
<path d="M0 0.000221252H75.9998V76H0V0.000221252Z" fill="white"/>
</mask>
<g mask="url(#mask0_1_1299)">
<path d="M55.8661 71.3135L67.3838 61.0606C71.7738 55.0508 74.367 47.6453 74.367 39.6329C74.367 19.548 58.0848 3.26584 37.9999 3.26584C17.9149 3.26584 1.63281 19.548 1.63281 39.6329C1.63281 47.6453 4.22586 55.0508 8.61589 61.0606L20.1336 71.3135C25.4106 74.2959 31.5059 76 37.9999 76C44.4939 76 50.589 74.2959 55.8661 71.3135Z" fill="#FCACDC"/>
<path d="M67.6873 35.922C67.6873 52.3179 54.3958 65.6094 37.9999 65.6094C21.604 65.6094 8.3125 52.3179 8.3125 35.922C8.3125 19.5261 21.604 6.23456 37.9999 6.23456C54.3958 6.23456 67.6873 19.5261 67.6873 35.922Z" fill="#FC90CE"/>
<path d="M32.7773 15.8047C32.7773 17.4442 31.4482 18.7734 29.8086 18.7734C28.1691 18.7734 26.8398 17.4442 26.8398 15.8047C26.8398 14.1651 28.1691 12.836 29.8086 12.836C31.4482 12.836 32.7773 14.1651 32.7773 15.8047Z" fill="#CBD3D8"/>
<path d="M43.2188 15.8047C43.2188 17.4442 44.548 18.7734 46.1875 18.7734C47.8271 18.7734 49.1562 17.4442 49.1562 15.8047C49.1562 14.1651 47.8271 12.836 46.1875 12.836C44.548 12.836 43.2188 14.1651 43.2188 15.8047Z" fill="#DCE2E6"/>
<path d="M37.9999 21.1282L44.7731 27.9014C42.5777 27.3908 40.3096 27.128 37.9999 27.128C35.6902 27.128 33.4221 27.3908 31.2267 27.9014L37.9999 21.1282ZM15.4498 68.1641H16.7062C14.8607 64.7125 13.8789 60.8397 13.8789 56.8155C13.8789 50.3718 16.3879 44.3141 20.944 39.7581C25.499 35.203 31.5563 32.6944 37.9999 32.6944C44.4434 32.6944 50.5007 35.203 55.0558 39.7581C59.6118 44.3141 62.1209 50.3718 62.1209 56.8155C62.1209 60.8397 61.139 64.7125 59.2935 68.1641H60.5502C63.1379 66.1155 65.4366 63.7263 67.3839 61.0615C68.6694 52.1189 65.8721 42.7024 58.9919 35.822L37.9999 14.83L17.0079 35.822C11.21 41.62 8.3125 49.217 8.3125 56.814C8.3125 58.2338 8.41388 59.6534 8.61605 61.0615C10.5635 63.7262 12.8622 66.1153 15.4498 68.1641Z" fill="white"/>
<path d="M59.293 68.1641H60.5496C63.1373 66.1155 65.4361 63.7264 67.3834 61.0616C68.3176 54.5625 67.0932 47.8141 63.7146 41.9698L63.7096 41.9703C64.6318 43.5676 64.0845 45.6104 62.4872 46.5325C61.7318 46.9698 60.835 47.0928 59.9897 46.8752C61.3847 49.9583 62.1202 53.3302 62.1202 56.8155C62.1202 60.8399 61.1385 64.7125 59.293 68.1641Z" fill="#EDF1F4"/>
<path d="M15.4498 68.1641H16.7062C14.8607 64.7125 13.8789 60.8399 13.8789 56.8155C13.8789 53.3302 14.6144 49.9583 16.0094 46.8752C15.1643 47.0929 14.2675 46.9698 13.5123 46.5325C11.9148 45.6104 11.3675 43.5676 12.2897 41.9703L12.2851 41.968C9.6376 46.5469 8.3125 51.68 8.3125 56.8141C8.3125 58.2338 8.41373 59.6536 8.61605 61.0615C10.5633 63.7263 12.8621 66.1155 15.4498 68.1641Z" fill="#EDF1F4"/>
<path d="M37.9999 31.5826C31.2594 31.5826 24.9226 34.207 20.1563 38.9733C15.39 43.7396 12.7656 50.0764 12.7656 56.8169C12.7656 60.8238 13.6935 64.6885 15.4477 68.1655C16.9259 69.3353 18.4927 70.3886 20.1339 71.316C16.803 67.2274 14.9922 62.1617 14.9922 56.8169C14.9922 50.6701 17.385 44.893 21.7312 40.5467C26.076 36.202 31.8546 33.8092 37.9999 33.8092C44.1452 33.8092 49.9239 36.202 54.2686 40.5467C58.6149 44.893 61.0077 50.6701 61.0077 56.8169C61.0077 62.1618 59.1967 67.2277 55.8657 71.3164C57.5068 70.3891 59.0735 69.3358 60.5517 68.166C62.306 64.689 63.2342 60.8241 63.2342 56.8169C63.2342 50.0764 60.6099 43.7396 55.8435 38.9733C51.0772 34.207 44.7404 31.5826 37.9999 31.5826Z" fill="#EDF1F4"/>
<path d="M49.8902 7.18479L46.3868 1.05389C46.2035 0.733107 45.9386 0.466479 45.6191 0.281033C45.2996 0.0955858 44.9367 -0.00208855 44.5672 -0.00209141H31.4323C31.0629 -0.00209236 30.7 0.095582 30.3805 0.281031C30.061 0.466479 29.7962 0.733108 29.6129 1.05389L26.1094 7.18479C25.9023 7.54747 25.8084 7.96384 25.84 8.3803L37.9998 11.3516L50.1597 8.3803C50.1902 7.9721 50.1018 7.55543 49.8902 7.18479Z" fill="#B5B0F7"/>
<path d="M29.611 1.05566L26.1075 7.18655C25.9004 7.54923 25.8065 7.96559 25.838 8.38207L30.1413 9.43359L29.6156 8.38207C28.044 5.23921 29.611 1.05566 29.611 1.05566Z" fill="#9483E3"/>
<path d="M42.1914 0.00226307C42.1914 0.00226307 46.3413 6.57773 50.1603 8.38465L45.3396 9.5625L45.8587 8.38465L42.1914 0.00226307Z" fill="#9483E3"/>
<path d="M36.4277 -0.00209141C36.4277 -0.00209141 36.373 6.53315 41.1428 8.3803L37.9993 11.3516L34.332 8.3803L36.4277 -0.00209141Z" fill="#9483E3"/>
<path d="M50.1598 8.38285C50.1301 8.77472 49.992 9.15769 49.7471 9.48425L41.6662 20.2578H34.3334L26.2525 9.48425C26.0076 9.15769 25.8695 8.77472 25.8398 8.38285H50.1598Z" fill="#9483E3"/>
<path d="M50.1605 8.38652C50.1605 8.38652 44.0982 12.9303 42.1367 16.8789L45.8589 8.38652H50.1605Z" fill="#836CD9"/>
<path d="M41.1426 8.38652C41.1426 8.38652 35.3307 11.0042 36.4481 16.8789L34.332 8.38652H41.1426Z" fill="#836CD9"/>
<path d="M37.0821 20.2578H35.5547L29.6172 8.38285H34.8555L37.0821 20.2578Z" fill="#7255CE"/>
<path d="M46.3829 8.38285L40.4454 20.2578H38.918L41.1445 8.38285H46.3829Z" fill="#7255CE"/>
<path d="M39.5703 0.000422478L41.142 8.38281H46.3809L42.1898 0.000422478H39.5703Z" fill="#836CD9"/>
<path d="M33.8083 0.000422478L29.6172 8.38281H34.8561L36.4278 0.000422478H33.8083Z" fill="#836CD9"/>
<path d="M33.8083 0.000422478C33.8083 0.000422478 32.0259 5.25168 34.8561 8.38281H29.6172L33.8083 0.000422478Z" fill="#7255CE"/>
<path d="M39.5703 0.000422478C39.5703 0.000422478 41.5533 6.57589 46.3809 8.38281H41.142L39.5703 0.000422478Z" fill="#7255CE"/>
<path d="M25.8398 8.38652C25.8692 8.78559 26.0124 9.16787 26.2524 9.48808L31.7956 16.8789C27.9335 11.7296 29.6174 8.38652 29.6174 8.38652H25.8398Z" fill="#836CD9"/>
<path d="M34.8561 8.38652H29.6172L33.8634 16.8789C31.9264 13.0908 34.8561 8.38652 34.8561 8.38652Z" fill="#5C44C1"/>
<path d="M46.382 8.38652C46.382 8.38652 40.6393 10.8302 39.5508 16.8789L41.1431 8.38652H46.382Z" fill="#5C44C1"/>
<path d="M49.5338 17.2891H26.4665C24.9341 17.2891 23.9373 18.9018 24.6226 20.2727C25.0664 21.1603 25.7487 21.9068 26.5928 22.4285C27.437 22.9502 28.4098 23.2266 29.4022 23.2266H46.5981C47.5905 23.2266 48.5633 22.9502 49.4075 22.4285C50.2516 21.9068 50.9339 21.1603 51.3777 20.2727C52.063 18.9018 51.0662 17.2891 49.5338 17.2891Z" fill="#EDF1F4"/>
<path d="M35.8936 17.2891H26.4665C24.9341 17.2891 23.9373 18.9018 24.6226 20.2727C25.0665 21.1603 25.7487 21.9068 26.5929 22.4285C27.4371 22.9502 28.4099 23.2266 29.4023 23.2266H35.8936C34.2541 23.2266 32.9249 21.8973 32.9249 20.2578C32.9249 18.6182 34.2541 17.2891 35.8936 17.2891Z" fill="#DCE2E6"/>
<path d="M17.9523 45.5063C17.2327 46.5777 15.982 47.1112 14.7591 46.9557C13.4527 50.0338 12.7656 53.3726 12.7656 56.8174C12.7656 60.8243 13.6937 64.689 15.4477 68.166C16.9259 69.3358 18.4927 70.3891 20.1339 71.3164C16.803 67.2279 14.9922 62.1621 14.9922 56.8174C14.9922 52.7886 16.0203 48.9187 17.9523 45.5063Z" fill="#DCE2E6"/>
<path d="M63.2338 56.8169C63.2338 53.372 62.5468 50.0334 61.2403 46.9552C60.017 47.1108 58.7655 46.5767 58.0462 45.5042C59.9789 48.917 61.0072 52.7875 61.0072 56.8169C61.0072 62.1618 59.1963 67.2277 55.8652 71.3164C57.5064 70.3891 59.0732 69.3358 60.5514 68.166C62.3058 64.689 63.2338 60.8241 63.2338 56.8169Z" fill="#DCE2E6"/>
<path d="M42.9942 7.90218C42.3896 7.54169 41.8842 7.03636 41.5238 6.43176C41.4744 6.34811 41.4041 6.27874 41.3198 6.23044C41.2355 6.18215 41.1401 6.15658 41.043 6.15626C40.9458 6.15656 40.8505 6.18212 40.7662 6.23042C40.6819 6.27872 40.6117 6.34811 40.5623 6.43176C40.2018 7.03632 39.6965 7.54165 39.0919 7.90218C39.0082 7.95153 38.9389 8.02178 38.8906 8.10605C38.8423 8.19031 38.8167 8.28569 38.8164 8.38282C38.8164 8.58069 38.9219 8.76222 39.0919 8.86361C39.6965 9.22409 40.2018 9.72943 40.5623 10.334C40.6117 10.4176 40.682 10.487 40.7662 10.5352C40.8505 10.5835 40.9459 10.6091 41.043 10.6094C41.2408 10.6094 41.4224 10.5038 41.5238 10.334C41.8842 9.7294 42.3895 9.22405 42.9942 8.86361C43.0778 8.81419 43.1471 8.7439 43.1954 8.65961C43.2437 8.57533 43.2692 8.47995 43.2695 8.38282C43.2692 8.28571 43.2437 8.19036 43.1954 8.1061C43.1471 8.02184 43.0778 7.95157 42.9942 7.90218Z" fill="white"/>
</g>
</svg>
