<svg width="435" height="155" viewBox="0 0 435 155" fill="none" xmlns="http://www.w3.org/2000/svg">
<path d="M148.36 115.32C141.88 117.48 134.64 118.56 126.64 118.56C117.68 118.56 110.96 116.32 106.48 111.84C102.08 107.28 99.88 100.2 99.88 90.6C99.88 85.88 100.52 81.24 101.8 76.68C103.08 72.04 104.44 68.92 105.88 67.32C107.56 65.48 110.84 63.92 115.72 62.64C120.68 61.36 125.8 60.72 131.08 60.72C136.6 60.72 142.16 61.2 147.76 62.16C147.6 64.16 147.32 66.52 146.92 69.24C146.6 71.88 146.24 74.24 145.84 76.32C140.88 76 136.2 75.84 131.8 75.84C127.48 75.84 124.72 76.08 123.52 76.56C122.88 76.8 122.28 78.44 121.72 81.48C121.24 84.52 121 87.36 121 90C121 93.52 121.48 96.24 122.44 98.16C123.48 100 125.08 101.28 127.24 102C129.4 102.72 132.32 103.08 136 103.08C137.6 103.08 141.12 102.92 146.56 102.6L148.36 115.32ZM181.88 118.56C172.28 118.56 165.08 116.32 160.28 111.84C155.56 107.28 153.2 100.12 153.2 90.36C153.2 85 153.68 80.32 154.64 76.32C155.68 72.24 156.92 69.4 158.36 67.8C160.2 65.72 163.56 64 168.44 62.64C173.4 61.28 178.04 60.6 182.36 60.6C192.68 60.6 200.04 62.8 204.44 67.2C208.84 71.6 211.04 78.64 211.04 88.32C211.04 98.72 208.68 106.36 203.96 111.24C199.24 116.12 191.88 118.56 181.88 118.56ZM182.24 104.52C185.36 104.52 187.4 103.44 188.36 101.28C189.32 99.04 189.8 95.12 189.8 89.52C189.8 85.6 189.6 82.6 189.2 80.52C188.8 78.36 188.04 76.8 186.92 75.84C185.88 74.8 184.24 74.28 182 74.28C178.8 74.28 176.96 74.56 176.48 75.12C175.84 75.68 175.32 77.44 174.92 80.4C174.52 83.36 174.32 86.44 174.32 89.64C174.32 95.08 174.84 98.92 175.88 101.16C177 103.4 179.12 104.52 182.24 104.52ZM274.073 61.8V117H257.393L255.113 107.76C249.353 114.72 242.473 118.2 234.473 118.2C231.593 118.2 228.873 117.8 226.313 117C223.833 116.2 221.953 115.04 220.673 113.52C219.953 112.64 219.393 110.44 218.993 106.92C218.673 103.4 218.513 98.04 218.513 90.84V61.8H239.033V90.6C239.033 92.2 239.073 94.08 239.153 96.24C239.233 98.4 239.473 99.76 239.873 100.32C240.433 101.12 242.033 101.52 244.673 101.52L246.593 101.4C248.833 101.32 251.153 100.8 253.553 99.84V61.8H274.073ZM318.112 60.6C319.152 60.6 320.232 60.72 321.352 60.96C322.552 61.2 323.432 61.48 323.992 61.8C323.992 63.56 323.792 66.48 323.392 70.56C322.992 74.56 322.632 77.4 322.312 79.08C321.512 79 320.032 78.96 317.872 78.96C312.832 78.96 308.352 79.24 304.432 79.8V117H283.912V61.8H301.072L303.472 70.68H303.592C305.912 67.64 308.392 65.2 311.032 63.36C313.672 61.52 316.032 60.6 318.112 60.6ZM374.021 98.28C374.021 105.4 371.741 110.52 367.181 113.64C362.701 116.76 356.301 118.32 347.981 118.32C342.141 118.32 335.421 117.48 327.821 115.8C327.981 114.2 328.341 111.92 328.901 108.96C329.541 105.92 330.061 103.6 330.461 102C333.341 102.48 336.541 102.88 340.061 103.2C343.581 103.44 346.581 103.56 349.061 103.56C351.221 103.56 352.541 103.44 353.021 103.2C353.101 103.12 353.181 102.92 353.261 102.6C353.421 102.2 353.501 101.8 353.501 101.4C353.501 99.8 352.501 98.72 350.501 98.16C349.861 98 347.421 97.32 343.181 96.12C338.941 94.92 335.461 92.76 332.741 89.64C330.101 86.44 328.781 82.48 328.781 77.76C328.781 75.28 329.341 72.52 330.461 69.48C331.581 66.44 332.781 64.52 334.061 63.72C335.021 63.08 337.341 62.44 341.021 61.8C344.701 61.08 348.101 60.72 351.221 60.72C357.861 60.72 364.541 61.2 371.261 62.16C371.261 63.6 371.061 66.04 370.661 69.48C370.261 72.84 369.901 74.96 369.581 75.84C362.781 74.96 357.301 74.52 353.141 74.52C350.981 74.52 349.581 74.64 348.941 74.88C348.781 74.96 348.621 75.2 348.461 75.6C348.301 75.92 348.221 76.36 348.221 76.92C348.221 78.04 348.581 78.84 349.301 79.32C350.021 79.88 351.901 80.56 354.941 81.36C358.541 82.4 361.621 83.48 364.181 84.6C366.821 85.72 369.101 87.4 371.021 89.64C373.021 91.88 374.021 94.76 374.021 98.28ZM414.306 102.6C416.306 102.6 420.026 102.4 425.466 102C426.186 102 427.506 101.92 429.426 101.76L431.226 114.12C425.066 117 417.066 118.44 407.226 118.44C398.026 118.44 390.946 116.12 385.986 111.48C381.106 106.84 378.666 99.84 378.666 90.48C378.666 85.68 379.266 81.04 380.466 76.56C381.746 72.08 383.186 68.96 384.786 67.2C386.466 65.44 389.586 63.92 394.146 62.64C398.706 61.36 403.226 60.72 407.706 60.72C414.906 60.72 420.306 62 423.906 64.56C427.506 67.12 429.866 70.68 430.986 75.24C432.106 79.72 432.666 85.76 432.666 93.36C427.226 93.68 421.906 93.84 416.706 93.84H399.666C399.666 96.4 400.186 98.32 401.226 99.6C402.346 100.88 403.906 101.72 405.906 102.12C407.906 102.44 410.706 102.6 414.306 102.6ZM400.866 75C400.386 75.24 400.026 76.28 399.786 78.12C399.546 79.96 399.386 82.04 399.306 84.36H405.546C409.306 84.36 412.026 84.32 413.706 84.24C413.706 80.4 413.146 77.68 412.026 76.08C410.986 74.48 409.146 73.68 406.506 73.68C404.346 73.68 402.466 74.12 400.866 75Z" fill="#0157E4"/>
<path d="M15.6 54.96C12.88 54.96 10.52 54.04 8.52 52.2C6.6 50.36 5.64 48.16 5.64 45.6C5.64 43.04 6.6 40.84 8.52 39C10.52 37.16 12.88 36.24 15.6 36.24C18.32 36.24 20.64 37.16 22.56 39C24.48 40.84 25.44 43.04 25.44 45.6C25.44 48.16 24.48 50.36 22.56 52.2C20.64 54.04 18.32 54.96 15.6 54.96ZM5.28 61.8H25.8V117H5.28V61.8ZM89.3747 65.28C90.0947 66.16 90.6147 68.36 90.9347 71.88C91.3347 75.4 91.5347 80.76 91.5347 87.96V117H71.0147V88.2V83.28C71.0147 80.72 70.8147 79.12 70.4147 78.48C69.7747 77.68 68.2947 77.28 65.9747 77.28C64.8547 77.28 64.0147 77.32 63.4547 77.4C61.2147 77.48 58.8947 78 56.4947 78.96V117H35.9747V61.8H52.6547L54.9347 71.04C60.6947 64.08 67.5747 60.6 75.5747 60.6C78.4547 60.6 81.1347 61 83.6147 61.8C86.1747 62.6 88.0947 63.76 89.3747 65.28Z" fill="#E4016A"/>
</svg>
